<?xml version="1.0" encoding="UTF-8" standalone="no"?>
<!-- Created with Inkscape (http://www.inkscape.org/) -->

<svg
   width="200mm"
   height="200mm"
   viewBox="0 0 200 200"
   version="1.1"
   id="svg1"
   xml:space="preserve"
   xmlns="http://www.w3.org/2000/svg"
   xmlns:svg="http://www.w3.org/2000/svg"><defs
     id="defs1" /><g
     id="layer1"><path
       style="fill:#000000;stroke-width:1.5435"
       d="M 22.384111,164.77147 C 11.084862,161.70768 9.6944799,145.73417 20.274806,140.53856 l 2.333687,-1.14598 h 77.38884 77.388847 l 2.33367,1.14598 c 9.62359,4.72578 9.62359,18.71046 0,23.43625 l -2.33367,1.14598 -76.57207,0.0772 c -59.637216,0.0602 -76.982981,-0.0343 -78.429999,-0.42655 z m 0,-52.27321 C 11.084862,109.43449 9.6944799,93.460971 20.274806,88.265363 l 2.333687,-1.145989 h 77.38884 77.388847 l 2.33367,1.145989 c 9.62359,4.725782 9.62359,18.710457 0,23.436237 l -2.33367,1.14598 -76.57207,0.0772 c -59.637216,0.0602 -76.982981,-0.0341 -78.429999,-0.42655 z m 0,-52.273201 C 11.084862,57.16128 9.6944799,41.18777 20.274806,35.992162 l 2.333687,-1.145987 h 77.38884 77.388847 l 2.33367,1.145987 c 9.62359,4.725782 9.62359,18.710458 0,23.43624 l -2.33367,1.145988 -76.57207,0.07722 C 41.176894,60.71175 23.831129,60.61742 22.384111,60.225059 Z"
       id="path2" /></g></svg>
