<?xml version="1.0" encoding="UTF-8" standalone="no"?>
<!-- Created with Inkscape (http://www.inkscape.org/) -->

<svg
   width="200mm"
   height="200mm"
   viewBox="0 0 200 200"
   version="1.1"
   id="svg1"
   xml:space="preserve"
   xmlns="http://www.w3.org/2000/svg"
   xmlns:svg="http://www.w3.org/2000/svg"><defs
     id="defs1" /><g
     id="layer1"><path
       style="fill:#000000;stroke-width:1.34915"
       d="m 47.398725,171.3838 c -0.561003,-0.16812 -1.340458,-0.59568 -1.732122,-0.95013 -1.5489,-1.40173 -1.709981,-2.26025 -1.708582,-9.1063 0.0012,-5.84912 0.07422,-6.65183 0.698141,-7.6751 1.320943,-2.16642 2.258749,-2.4026 10.098671,-2.54333 l 7.05003,-0.12655 V 102.46763 53.952871 H 46.455431 31.105999 v 5.837109 c 0,5.474282 -0.05036,5.912503 -0.810282,7.05003 -1.512229,2.263668 -2.471159,2.497333 -9.784437,2.384201 -5.911848,-0.09144 -6.579259,-0.166213 -7.496234,-0.839693 -2.273076,-1.669477 -2.254802,-1.510563 -2.255413,-19.613187 -6.31e-4,-18.70014 -0.07206,-18.2091 2.867962,-19.716666 l 1.56632,-0.803167 59.44803,5.54e-4 c 55.884755,5.21e-4 59.522495,0.03796 60.690285,0.624686 0.68325,0.343272 1.61129,1.176477 2.06233,1.851565 l 0.82005,1.227435 -0.099,17.216927 -0.099,17.216927 -0.8924,0.966914 c -1.58256,1.714676 -2.67352,1.945844 -9.18036,1.945241 -6.59992,-6.11e-4 -7.72479,-0.277031 -9.1779,-2.255327 -0.66647,-0.907352 -0.75041,-1.601912 -0.85204,-7.050031 l -0.11279,-6.043518 h -15.1475 -15.147384 v 48.514759 48.51476 l 7.113786,0.12155 c 6.521298,0.11144 7.195828,0.18283 8.098858,0.85751 2.33366,1.74355 2.44614,2.13359 2.57585,8.93193 0.11009,5.77193 0.063,6.34175 -0.64614,7.80656 -0.56435,1.16579 -1.16331,1.77301 -2.28405,2.31555 -1.49345,0.72297 -1.96159,0.73486 -27.732452,0.70471 -14.417347,-0.0169 -26.67236,-0.16824 -27.233363,-0.33636 z m 82.713595,0.0135 c -1.62509,-0.65581 -1.91225,-1.63547 -1.91225,-6.52399 0,-4.38393 0.037,-4.61435 0.87619,-5.45351 0.84403,-0.84403 1.05367,-0.8762 5.71142,-0.8762 h 4.83523 V 126.95191 95.360639 h -9.81649 -9.8165 v 3.587362 c 0,3.798989 -0.44909,5.335799 -1.76506,6.040069 -0.3777,0.20216 -2.61259,0.36755 -4.96639,0.36755 -4.08335,0 -4.33003,-0.0424 -5.37793,-0.92415 l -1.09828,-0.92414 V 92.147968 80.788598 l 1.09828,-0.92414 1.09828,-0.924141 h 39.08758 39.08758 l 1.04342,1.043433 1.04344,1.043431 v 11.120787 11.120792 l -1.04344,1.04342 c -1.04331,1.04333 -1.0439,1.04344 -5.56038,1.04344 -4.51648,0 -4.51708,-1.1e-4 -5.5604,-1.04344 -1.02784,-1.02784 -1.04343,-1.10257 -1.04343,-5.003129 v -3.959705 l -9.90574,0.09489 -9.90574,0.09489 v 31.412794 31.41278 l 4.94038,0.17848 c 4.8754,0.17615 4.95171,0.19166 5.80066,1.18004 0.80108,0.93263 0.86028,1.28394 0.86028,5.10447 0,4.52774 -0.3759,5.77796 -1.95332,6.49669 -1.11552,0.50826 -34.50978,0.57598 -35.75739,0.0724 z"
       id="path2" /></g></svg>
