<?xml version="1.0" encoding="UTF-8" standalone="no"?>
<!-- Created with Inkscape (http://www.inkscape.org/) -->

<svg
   width="200mm"
   height="200mm"
   viewBox="0 0 200 200"
   version="1.1"
   id="svg1"
   xml:space="preserve"
   xmlns="http://www.w3.org/2000/svg"
   xmlns:svg="http://www.w3.org/2000/svg"><defs
     id="defs1" /><g
     id="layer1"><path
       style="fill:#000000;fill-opacity:1;stroke-width:1.32596"
       d="m 43.784584,189.25763 c -14.515049,-2.26011 -26.787948,-12.70242 -31.516199,-26.8153 -1.545497,-4.613 -2.083542,-8.96422 -2.085924,-16.86902 -0.0025,-8.18737 0.299659,-9.58989 2.622284,-12.17322 3.972013,-4.41783 10.61123,-4.50715 14.584913,-0.19621 2.435701,2.64242 2.546116,3.13757 2.802729,12.56887 0.201105,7.39121 0.321547,8.67361 0.985848,10.49681 2.15231,5.90709 6.813837,10.5441 12.614818,12.54848 l 2.347192,0.81101 H 99.992318 153.8444 l 2.34719,-0.81101 c 5.80431,-2.00553 10.47934,-6.65814 12.60897,-12.54848 0.65521,-1.81229 0.78113,-3.14984 0.98811,-10.49681 0.26564,-9.42931 0.37856,-9.93508 2.80631,-12.56887 2.83573,-3.07641 7.3301,-4.02258 11.16781,-2.35107 2.41639,1.05245 4.80144,3.67976 5.51175,6.07159 0.72069,2.42683 0.72513,14.19012 0.007,18.95341 -2.59483,17.21503 -16.18626,30.80646 -33.40129,33.40129 -4.89199,0.73737 -107.348388,0.71776 -112.095827,-0.0215 z m 52.874869,-39.96541 c -0.771821,-0.28978 -1.479241,-0.52925 -1.572044,-0.53215 -0.541006,-0.017 -43.334901,-43.21647 -43.968233,-44.385 -1.087671,-2.00682 -1.090459,-6.754578 -0.0052,-8.770691 1.791099,-3.327225 5.152538,-5.417174 8.733717,-5.430127 4.46272,-0.01614 4.315053,-0.126219 17.702746,13.196228 6.66309,6.63061 12.228096,12.05566 12.366681,12.05566 0.138583,0 0.253512,-21.983738 0.255396,-48.852765 l 0.0034,-48.852775 0.82306,-1.767507 c 1.544429,-3.31663 5.373048,-5.775293 8.993265,-5.775293 3.601939,0 7.238939,2.319264 8.916669,5.686037 l 0.90651,1.819115 v 49.123518 49.12351 l 12.36668,-12.30769 c 13.66622,-13.601023 13.48356,-13.464211 17.95472,-13.448038 3.58118,0.01299 6.94261,2.102902 8.73371,5.430127 1.01816,1.891367 1.08212,6.749541 0.11324,8.595281 -0.91872,1.75006 -42.86757,43.7252 -44.60612,44.63408 -1.83204,0.95776 -5.765974,1.19144 -7.718207,0.45848 z"
       id="path2" /></g></svg>
