<?xml version="1.0" encoding="UTF-8" standalone="no"?>
<!-- Created with Inkscape (http://www.inkscape.org/) -->

<svg
   width="200mm"
   height="200mm"
   viewBox="0 0 200 200"
   version="1.1"
   id="svg1"
   xml:space="preserve"
   xmlns="http://www.w3.org/2000/svg"
   xmlns:svg="http://www.w3.org/2000/svg"><defs
     id="defs1" /><g
     id="layer1"><path
       style="fill:#000000;stroke-width:1.89649"
       d="m 23.641913,183.03785 c -3.493791,-2.35446 -4.812375,-6.07813 -3.449066,-9.74011 0.289235,-0.77692 4.96983,-5.86948 10.401324,-11.31682 l 9.875445,-9.90423 -9.852167,-9.9161 c -7.883829,-7.93497 -9.971427,-10.32104 -10.449104,-11.94303 -1.708328,-5.80075 3.904478,-11.49332 9.65968,-9.79695 1.755647,0.51748 3.883231,2.36796 12.037586,10.46973 l 9.905023,9.84115 10.171066,-10.09405 c 10.914403,-10.83177 11.53666,-11.24625 15.708914,-10.46352 2.370681,0.44474 5.576494,3.65056 6.021237,6.02123 0.782717,4.17225 0.368242,4.79451 -10.463518,15.70892 l -10.094057,10.17107 9.841147,9.90501 c 7.874314,7.92542 9.960449,10.31013 10.438085,11.93198 1.711472,5.81142 -3.953871,11.47676 -9.765302,9.76529 -1.62199,-0.47767 -4.008056,-2.56527 -11.943039,-10.44909 l -9.91609,-9.85217 -9.904243,9.87544 c -5.447333,5.4315 -10.539897,10.11208 -11.316805,10.40132 -2.332262,0.86827 -5.066318,0.62478 -6.906116,-0.61507 z m 88.944587,-7.73142 c -0.91635,-0.45156 -2.27115,-1.6143 -3.01067,-2.58386 -1.09826,-1.43989 -1.34459,-2.29182 -1.34459,-4.65034 0,-3.11956 0.83489,-4.73721 3.45456,-6.69344 1.36339,-1.01812 1.93192,-1.03672 35.749,-1.1702 38.30953,-0.15115 36.47528,-0.30567 39.22798,3.30332 1.93045,2.53092 1.93045,6.68889 0,9.21982 -2.72444,3.57193 -1.001,3.41987 -38.61581,3.40715 -30.26167,-0.009 -33.96854,-0.0973 -35.46047,-0.83245 z m 0,-32.11396 c -0.91635,-0.45155 -2.27115,-1.61429 -3.01067,-2.58385 -1.09826,-1.4399 -1.34459,-2.29182 -1.34459,-4.65034 0,-3.11956 0.83489,-4.73721 3.45456,-6.69345 1.36339,-1.01811 1.93192,-1.03673 35.749,-1.17021 38.30953,-0.15115 36.47528,-0.30566 39.22798,3.30333 1.93045,2.53093 1.93045,6.6889 0,9.21983 -2.72444,3.57193 -1.001,3.41987 -38.61581,3.40714 -30.26167,-0.009 -33.96854,-0.0973 -35.46047,-0.83245 z M 48.358593,95.049986 C 47.44224,94.582784 46.087432,93.407736 45.34791,92.438798 L 44.003326,90.677062 43.854849,77.214261 43.706373,63.751458 H 30.884397 c -14.34174,0 -15.156359,-0.157845 -17.643441,-3.418572 -1.105707,-1.449657 -1.351574,-2.297272 -1.351574,-4.659507 0,-3.119093 0.83444,-4.736292 3.453682,-6.693443 1.30521,-0.975284 2.157534,-1.043068 14.874052,-1.182927 L 43.706618,47.648646 43.85498,34.159145 c 0.139867,-12.716518 0.207644,-13.568842 1.182927,-14.874053 1.957151,-2.619239 3.57435,-3.453682 6.693443,-3.453682 2.362235,0 3.20985,0.245868 4.659507,1.351575 3.261516,2.487678 3.418572,3.29932 3.418572,17.666478 v 12.845016 h 12.845018 c 14.367156,0 15.178798,0.157049 17.666478,3.418574 1.930437,2.530933 1.930437,6.688897 0,9.219833 -2.48768,3.261514 -3.299322,3.418572 -17.666478,3.418572 H 59.809429 v 12.845018 c 0,14.322159 -0.164085,15.184156 -3.35334,17.61672 -2.184788,1.66643 -5.74804,2.034634 -8.09748,0.83679 z m 64.227907,-32.1424 c -0.91635,-0.451562 -2.27115,-1.614301 -3.01067,-2.583862 -1.09826,-1.439894 -1.34459,-2.291826 -1.34459,-4.650345 0,-3.119558 0.83489,-4.737206 3.45456,-6.693443 1.36339,-1.018114 1.93192,-1.036724 35.749,-1.170199 38.30953,-0.151208 36.47528,-0.305668 39.22798,3.303316 1.93045,2.530933 1.93045,6.688897 0,9.219833 -2.72444,3.571926 -1.001,3.419863 -38.61581,3.407147 -30.26167,-0.01024 -33.96854,-0.09725 -35.46047,-0.832447 z"
       id="path2" /></g></svg>
