<?xml version="1.0" encoding="UTF-8" standalone="no"?>
<!-- Created with Inkscape (http://www.inkscape.org/) -->

<svg
   width="200mm"
   height="200mm"
   viewBox="0 0 200 200"
   version="1.1"
   id="svg1"
   xml:space="preserve"
   xmlns="http://www.w3.org/2000/svg"
   xmlns:svg="http://www.w3.org/2000/svg"><defs
     id="defs1" /><g
     id="layer1"><path
       style="fill:#000000;stroke-width:1.15505"
       d="m 60.538395,185.40112 c -3.856487,-1.0318 -7.510408,-4.07383 -9.210937,-7.66846 -0.759757,-1.60599 -1.356366,-4.3896 -1.612226,-7.52218 -0.08508,-1.0417 -0.253937,-1.18932 -2.409912,-2.10677 -11.004929,-4.68308 -20.086741,-14.59143 -23.822644,-25.99073 -2.049266,-6.2529 -1.995464,-5.51863 -2.141665,-29.22891 -0.152313,-24.701288 -0.150338,-24.726747 2.304912,-29.706078 2.699181,-5.474035 8.192797,-9.851691 14.115233,-11.247902 3.324456,-0.783736 8.162272,-0.629763 11.442789,0.364194 0.551692,0.167155 0.587712,-0.52164 0.587712,-11.23867 0,-6.337254 0.161278,-12.576288 0.362491,-14.022959 0.703097,-5.055078 3.270019,-9.936513 6.9614,-13.238277 2.160424,-1.932397 6.306046,-4.099566 9.28657,-4.854655 2.707614,-0.68595 7.503702,-0.61779 10.424302,0.148146 1.292967,0.339084 2.373522,0.594842 2.401235,0.568352 0.02771,-0.02648 0.428761,-0.982956 0.89122,-2.125479 3.422772,-8.456096 12.094754,-13.97823 21.089745,-13.429501 4.41491,0.269328 9.67528,2.27125 12.30182,4.68167 l 0.7496,0.687928 2.00958,-1.409641 c 2.65921,-1.865326 5.3439,-3.021113 8.35636,-3.597491 3.184,-0.609201 5.18817,-0.595748 8.3831,0.05627 6.87552,1.403153 12.76061,6.242102 15.4909,12.737231 0.54351,1.292968 1.11204,2.345415 1.2634,2.338773 0.15135,-0.0066 1.46503,-0.290421 2.91926,-0.630621 3.32181,-0.777096 8.0893,-0.595601 11.29311,0.429922 6.21504,1.989405 11.7007,7.453267 13.86406,13.808984 l 0.74478,2.188062 0.0894,50.207417 c 0.0982,55.132395 0.1793,52.700945 -1.93291,57.975925 -2.03714,5.08756 -6.32946,10.41968 -10.51798,13.06601 l -1.57454,0.9948 -0.003,2.01502 c -0.008,5.21194 -1.37145,8.94801 -4.36587,11.96419 -2.10117,2.11645 -3.77302,3.08348 -6.60717,3.82167 -2.87227,0.74813 -90.329561,0.71411 -93.134046,-0.0363 z m 89.668095,-20.9192 v -7.01665 l 2.06598,-0.36393 c 6.19067,-1.09047 10.87727,-5.67154 12.03215,-11.76126 0.22295,-1.17554 0.3428,-18.27045 0.3428,-48.89321 0,-52.296135 0.13552,-49.183977 -2.24816,-51.625103 -3.41683,-3.499139 -9.12256,-2.604071 -11.30387,1.773258 l -0.8889,1.783784 v 19.346584 19.346584 l -0.85071,1.707149 c -1.48688,2.983788 -4.60666,4.46895 -7.90272,3.762071 -2.34968,-0.503918 -4.71232,-2.769498 -5.293,-5.075559 -0.28533,-1.133152 -0.39451,-8.806541 -0.39451,-27.728274 V 33.575809 l -0.7814,-1.480123 c -0.42978,-0.814067 -1.42512,-1.9335 -2.21186,-2.487629 -1.29459,-0.911818 -1.68012,-1.007507 -4.05928,-1.007507 -2.37915,0 -2.76468,0.09568 -4.05927,1.007507 -0.78675,0.554129 -1.78208,1.673562 -2.21186,2.487629 l -0.78142,1.480123 v 25.957904 c 0,17.870658 -0.11703,26.503586 -0.37562,27.709398 -0.53985,2.517204 -2.83007,4.779527 -5.37286,5.307409 -3.33035,0.691379 -6.33205,-0.741846 -7.82396,-3.735717 l -0.86848,-1.742826 V 60.59612 c 0,-23.176158 -0.065,-26.63147 -0.52157,-27.724453 -1.11742,-2.675023 -3.71172,-4.439035 -6.52839,-4.439035 -2.963519,0 -5.107047,1.273599 -6.500106,3.862109 -0.718883,1.335791 -0.723892,1.496578 -0.890865,28.601341 l -0.167918,27.258001 -1.022419,1.45594 c -2.908396,4.141601 -8.815723,4.141694 -11.724419,1.83e-4 L 78.841433,88.154448 78.673516,68.11673 C 78.543808,52.63873 78.40552,47.849748 78.065808,47.071506 76.836814,44.256024 73.19905,42.212072 70.291427,42.703312 c -2.161048,0.365107 -4.163838,1.872722 -5.169944,3.891713 l -0.888897,1.783784 v 33.394694 c 0,25.450557 -0.09825,33.723537 -0.413023,34.776997 -0.571752,1.91355 -2.730593,3.99547 -4.720922,4.55273 -3.308942,0.92645 -6.750949,-0.52791 -8.281088,-3.49903 l -0.857978,-1.66597 -0.167918,-12.77196 C 49.646451,92.121827 49.548561,90.258019 49.067936,89.386787 46.763479,85.209488 40.712679,84.450465 37.465729,87.931386 c -1.800004,1.92971 -1.779352,1.652363 -1.776813,23.861644 0.0022,19.39792 0.04084,20.74125 0.672035,23.37415 2.839556,11.84463 12.438801,20.3398 24.765156,21.91676 l 3.106479,0.39743 v 7.0086 7.00861 h 42.986954 42.98695 z"
       id="path2" /></g></svg>
