<?xml version="1.0" encoding="UTF-8" standalone="no"?>
<!-- Created with Inkscape (http://www.inkscape.org/) -->

<svg
   width="200mm"
   height="200mm"
   viewBox="0 0 200 200"
   version="1.1"
   id="svg1"
   xml:space="preserve"
   xmlns="http://www.w3.org/2000/svg"
   xmlns:svg="http://www.w3.org/2000/svg"><defs
     id="defs1" /><g
     id="layer1"><path
       style="fill:#000000;stroke-width:1.41508"
       d="m 32.25523,171.32277 c -7.24536,-1.57635 -13.249511,-6.21282 -16.481268,-12.72699 -2.920007,-5.8858 -2.796874,-3.11495 -2.680507,-60.318845 l 0.102763,-50.513513 1.041707,-3.075554 c 2.454353,-7.246291 8.332592,-13.102256 15.613613,-15.554466 2.36164,-0.795384 3.041384,-0.825439 21.335536,-0.943346 16.344446,-0.105338 19.099942,-0.04365 20.405095,0.456843 0.829905,0.318246 6.563391,3.949261 12.741081,8.068914 l 11.232144,7.490279 24.351306,2.4e-4 c 27.19841,2.69e-4 26.36305,-0.06906 31.91537,2.649008 4.1917,2.051987 7.91473,5.715448 10.10207,9.940368 1.73941,3.359758 2.80798,7.270291 2.63466,9.641916 l -0.11278,1.543677 -7.71872,0.101037 -7.71872,0.101036 -0.21846,-1.346275 c -0.35711,-2.200598 -1.9646,-4.531228 -3.91674,-5.678769 l -1.76847,-1.039571 -26.4402,-0.187201 -26.440177,-0.1872 -11.654576,-7.768907 -11.654576,-7.768907 h -15.98221 c -15.347781,0 -16.045157,0.03043 -17.567977,0.767651 -1.603422,0.776211 -2.978658,2.295564 -3.811403,4.21084 -0.34994,0.804839 -0.455329,12.528146 -0.455329,50.650337 0,43.997558 0.06572,49.760438 0.58147,50.995118 1.204673,2.8839 4.14789,4.94885 7.053697,4.94885 1.272545,0 1.72027,-0.15727 1.865143,-0.65521 0.104843,-0.36036 2.913192,-14.30156 6.240765,-30.98043 3.327572,-16.67889 6.443365,-31.369966 6.923982,-32.64686 2.876361,-7.641776 9.411587,-13.224603 17.463366,-14.91835 3.762277,-0.791409 102.792245,-0.815041 105.758575,-0.02519 2.88125,0.767155 5.5313,2.359553 7.64353,4.592925 2.32265,2.455864 3.70768,5.389471 4.19506,8.885529 0.36402,2.611112 0.25622,3.232273 -5.82811,33.582406 -3.97003,19.80342 -6.53246,31.74272 -7.12637,33.20434 -2.98784,7.35314 -9.89964,13.04974 -17.59982,14.50552 -2.51931,0.4763 -11.34057,0.55059 -62.338494,0.52503 -47.857852,-0.0239 -59.847474,-0.12622 -61.686007,-0.52627 z m 123.83806,-16.87045 c 0.89288,-0.6269 1.98719,-1.80628 2.43181,-2.62083 0.57094,-1.04597 2.52302,-9.98477 6.6457,-30.43151 3.21051,-15.92279 5.8373,-29.022298 5.8373,-29.110032 0,-0.08773 -22.29743,-0.159493 -49.54984,-0.159493 H 71.908437 l -1.65011,0.871148 c -3.417296,1.804123 -3.074468,0.62153 -9.51393,32.818487 -3.191089,15.95526 -5.80198,29.22508 -5.80198,29.48848 0,0.38704 9.547162,0.46017 49.763733,0.38125 l 49.76374,-0.0976 z"
       id="path2" /></g></svg>
